<mxfile host="app.diagrams.net" modified="2023-10-23T09:28:01.767Z" agent="Mozilla/5.0 (Windows NT 10.0; Win64; x64) AppleWebKit/537.36 (KHTML, like Gecko) Chrome/109.0.0.0 Safari/537.36" etag="M7HoEBqAyIwhcWp7A7T0" version="21.6.6" type="github">
  <diagram name="第 1 页" id="RN8D6trhCSr_xTsAeLv5">
    <mxGraphModel dx="1525" dy="2227" grid="1" gridSize="10" guides="1" tooltips="1" connect="1" arrows="1" fold="1" page="1" pageScale="1" pageWidth="827" pageHeight="1169" math="0" shadow="0">
      <root>
        <mxCell id="0" />
        <mxCell id="1" parent="0" />
        <mxCell id="tqhBYrK17Wl8zSmaN2CT-5" value="" style="rounded=0;whiteSpace=wrap;html=1;fillColor=none;sketch=1;curveFitting=1;jiggle=2;strokeColor=#9673a6;" vertex="1" parent="1">
          <mxGeometry x="170" y="120" width="120" height="150" as="geometry" />
        </mxCell>
        <mxCell id="tqhBYrK17Wl8zSmaN2CT-1" value="开售状态获取" style="rounded=0;whiteSpace=wrap;html=1;fillColor=none;sketch=1;curveFitting=1;jiggle=2;strokeColor=none;" vertex="1" parent="1">
          <mxGeometry y="40" width="80" height="40" as="geometry" />
        </mxCell>
        <mxCell id="tqhBYrK17Wl8zSmaN2CT-2" value="终端" style="rounded=0;whiteSpace=wrap;html=1;fillColor=#e1d5e7;sketch=1;curveFitting=1;jiggle=2;strokeColor=#9673a6;" vertex="1" parent="1">
          <mxGeometry y="140" width="80" height="40" as="geometry" />
        </mxCell>
        <mxCell id="tqhBYrK17Wl8zSmaN2CT-3" value="首页" style="rounded=0;whiteSpace=wrap;html=1;fillColor=#e1d5e7;sketch=1;curveFitting=1;jiggle=2;strokeColor=#9673a6;" vertex="1" parent="1">
          <mxGeometry x="190" y="150" width="80" height="40" as="geometry" />
        </mxCell>
        <mxCell id="tqhBYrK17Wl8zSmaN2CT-4" value="开发者平台" style="rounded=0;whiteSpace=wrap;html=1;fillColor=#e1d5e7;sketch=1;curveFitting=1;jiggle=2;strokeColor=#9673a6;" vertex="1" parent="1">
          <mxGeometry x="410" y="140" width="80" height="40" as="geometry" />
        </mxCell>
        <mxCell id="tqhBYrK17Wl8zSmaN2CT-6" value="详情页" style="rounded=0;whiteSpace=wrap;html=1;fillColor=#e1d5e7;sketch=1;curveFitting=1;jiggle=2;strokeColor=#9673a6;" vertex="1" parent="1">
          <mxGeometry x="190" y="210" width="80" height="40" as="geometry" />
        </mxCell>
        <mxCell id="tqhBYrK17Wl8zSmaN2CT-7" value="商店" style="rounded=0;whiteSpace=wrap;html=1;fillColor=none;sketch=1;curveFitting=1;jiggle=2;strokeColor=none;" vertex="1" parent="1">
          <mxGeometry x="170" y="120" width="40" height="30" as="geometry" />
        </mxCell>
        <mxCell id="tqhBYrK17Wl8zSmaN2CT-8" value="" style="shape=curlyBracket;whiteSpace=wrap;html=1;rounded=1;labelPosition=left;verticalLabelPosition=middle;align=right;verticalAlign=middle;fillColor=none;strokeColor=#9673a6;sketch=1;curveFitting=1;jiggle=2;" vertex="1" parent="1">
          <mxGeometry x="510" y="100" width="20" height="270" as="geometry" />
        </mxCell>
        <mxCell id="tqhBYrK17Wl8zSmaN2CT-9" value="商店页可见" style="rounded=0;whiteSpace=wrap;html=1;fillColor=none;sketch=1;curveFitting=1;jiggle=2;strokeColor=none;" vertex="1" parent="1">
          <mxGeometry x="530" y="90" width="80" height="30" as="geometry" />
        </mxCell>
        <mxCell id="tqhBYrK17Wl8zSmaN2CT-10" value="游戏可购买" style="rounded=0;whiteSpace=wrap;html=1;fillColor=none;sketch=1;curveFitting=1;jiggle=2;strokeColor=none;" vertex="1" parent="1">
          <mxGeometry x="530" y="180" width="80" height="30" as="geometry" />
        </mxCell>
        <mxCell id="tqhBYrK17Wl8zSmaN2CT-11" value="游戏可下载" style="rounded=0;whiteSpace=wrap;html=1;fillColor=none;sketch=1;curveFitting=1;jiggle=2;strokeColor=none;" vertex="1" parent="1">
          <mxGeometry x="531" y="270" width="80" height="30" as="geometry" />
        </mxCell>
        <mxCell id="tqhBYrK17Wl8zSmaN2CT-12" value="游戏可启动" style="rounded=0;whiteSpace=wrap;html=1;fillColor=none;sketch=1;curveFitting=1;jiggle=2;strokeColor=none;" vertex="1" parent="1">
          <mxGeometry x="531" y="360" width="80" height="30" as="geometry" />
        </mxCell>
        <mxCell id="tqhBYrK17Wl8zSmaN2CT-13" value="" style="shape=flexArrow;endArrow=classic;html=1;rounded=0;endWidth=10;endSize=6.33;fillColor=none;strokeColor=#9673a6;sketch=1;curveFitting=1;jiggle=2;" edge="1" parent="1">
          <mxGeometry width="50" height="50" relative="1" as="geometry">
            <mxPoint x="569.5" y="450" as="sourcePoint" />
            <mxPoint x="569.5" y="490" as="targetPoint" />
          </mxGeometry>
        </mxCell>
        <mxCell id="tqhBYrK17Wl8zSmaN2CT-14" value="" style="shape=curlyBracket;whiteSpace=wrap;html=1;rounded=1;labelPosition=left;verticalLabelPosition=middle;align=right;verticalAlign=middle;fillColor=none;strokeColor=#9673a6;sketch=1;curveFitting=1;jiggle=2;" vertex="1" parent="1">
          <mxGeometry x="500" y="547" width="20" height="130" as="geometry" />
        </mxCell>
        <mxCell id="tqhBYrK17Wl8zSmaN2CT-15" value="未开放/未上线" style="rounded=0;whiteSpace=wrap;html=1;fillColor=none;sketch=1;curveFitting=1;jiggle=2;strokeColor=none;" vertex="1" parent="1">
          <mxGeometry x="530" y="537" width="80" height="30" as="geometry" />
        </mxCell>
        <mxCell id="tqhBYrK17Wl8zSmaN2CT-16" value="全量开放" style="rounded=0;whiteSpace=wrap;html=1;fillColor=none;sketch=1;curveFitting=1;jiggle=2;strokeColor=none;" vertex="1" parent="1">
          <mxGeometry x="530" y="592" width="80" height="30" as="geometry" />
        </mxCell>
        <mxCell id="tqhBYrK17Wl8zSmaN2CT-17" value="灰度开放" style="rounded=0;whiteSpace=wrap;html=1;fillColor=none;sketch=1;curveFitting=1;jiggle=2;strokeColor=none;" vertex="1" parent="1">
          <mxGeometry x="530" y="662" width="80" height="30" as="geometry" />
        </mxCell>
        <mxCell id="tqhBYrK17Wl8zSmaN2CT-18" value="" style="shape=curlyBracket;whiteSpace=wrap;html=1;rounded=1;labelPosition=left;verticalLabelPosition=middle;align=right;verticalAlign=middle;fillColor=none;strokeColor=#9673a6;sketch=1;curveFitting=1;jiggle=2;" vertex="1" parent="1">
          <mxGeometry x="610" y="567" width="20" height="80" as="geometry" />
        </mxCell>
        <mxCell id="tqhBYrK17Wl8zSmaN2CT-19" value="定时" style="rounded=0;whiteSpace=wrap;html=1;fillColor=none;sketch=1;curveFitting=1;jiggle=2;strokeColor=none;" vertex="1" parent="1">
          <mxGeometry x="610" y="553" width="80" height="30" as="geometry" />
        </mxCell>
        <mxCell id="tqhBYrK17Wl8zSmaN2CT-20" value="即时" style="rounded=0;whiteSpace=wrap;html=1;fillColor=none;sketch=1;curveFitting=1;jiggle=2;strokeColor=none;" vertex="1" parent="1">
          <mxGeometry x="611" y="632" width="80" height="30" as="geometry" />
        </mxCell>
        <mxCell id="tqhBYrK17Wl8zSmaN2CT-21" value="" style="shape=flexArrow;endArrow=classic;html=1;rounded=0;endWidth=10;endSize=6.33;fillColor=none;strokeColor=#9673a6;sketch=1;curveFitting=1;jiggle=2;" edge="1" parent="1">
          <mxGeometry width="50" height="50" relative="1" as="geometry">
            <mxPoint x="100" y="160" as="sourcePoint" />
            <mxPoint x="150" y="160" as="targetPoint" />
          </mxGeometry>
        </mxCell>
        <mxCell id="tqhBYrK17Wl8zSmaN2CT-22" value="" style="shape=flexArrow;endArrow=classic;html=1;rounded=0;endWidth=10;endSize=6.33;fillColor=none;strokeColor=#9673a6;sketch=1;curveFitting=1;jiggle=2;" edge="1" parent="1">
          <mxGeometry width="50" height="50" relative="1" as="geometry">
            <mxPoint x="330" y="164.5" as="sourcePoint" />
            <mxPoint x="380" y="164.5" as="targetPoint" />
          </mxGeometry>
        </mxCell>
        <mxCell id="tqhBYrK17Wl8zSmaN2CT-23" value="取值" style="rounded=0;whiteSpace=wrap;html=1;fillColor=none;sketch=1;curveFitting=1;jiggle=2;strokeColor=none;" vertex="1" parent="1">
          <mxGeometry x="460" y="457" width="80" height="40" as="geometry" />
        </mxCell>
        <mxCell id="tqhBYrK17Wl8zSmaN2CT-24" value="灰度白名单" style="rounded=0;whiteSpace=wrap;html=1;fillColor=#e1d5e7;sketch=1;curveFitting=1;jiggle=2;strokeColor=#9673a6;" vertex="1" parent="1">
          <mxGeometry x="400" y="587" width="80" height="40" as="geometry" />
        </mxCell>
        <mxCell id="tqhBYrK17Wl8zSmaN2CT-25" value="号码包" style="rounded=0;whiteSpace=wrap;html=1;fillColor=#e1d5e7;sketch=1;curveFitting=1;jiggle=2;strokeColor=#9673a6;" vertex="1" parent="1">
          <mxGeometry x="400" y="677" width="80" height="40" as="geometry" />
        </mxCell>
        <mxCell id="tqhBYrK17Wl8zSmaN2CT-26" value="" style="shape=flexArrow;endArrow=classic;html=1;rounded=0;endWidth=10;endSize=6.33;fillColor=none;strokeColor=#9673a6;sketch=1;curveFitting=1;jiggle=2;" edge="1" parent="1">
          <mxGeometry width="50" height="50" relative="1" as="geometry">
            <mxPoint x="439.5" y="632" as="sourcePoint" />
            <mxPoint x="439.5" y="672" as="targetPoint" />
          </mxGeometry>
        </mxCell>
        <mxCell id="tqhBYrK17Wl8zSmaN2CT-27" value="资源位系统" style="rounded=0;whiteSpace=wrap;html=1;fillColor=#e1d5e7;sketch=1;curveFitting=1;jiggle=2;strokeColor=#9673a6;" vertex="1" parent="1">
          <mxGeometry x="320" width="80" height="40" as="geometry" />
        </mxCell>
        <mxCell id="tqhBYrK17Wl8zSmaN2CT-28" value="" style="endArrow=classic;html=1;rounded=0;exitX=0.25;exitY=1;exitDx=0;exitDy=0;entryX=1;entryY=0;entryDx=0;entryDy=0;sketch=1;curveFitting=1;jiggle=2;fillColor=#e1d5e7;strokeColor=#9673a6;" edge="1" parent="1" source="tqhBYrK17Wl8zSmaN2CT-27" target="tqhBYrK17Wl8zSmaN2CT-5">
          <mxGeometry width="50" height="50" relative="1" as="geometry">
            <mxPoint x="210" y="70" as="sourcePoint" />
            <mxPoint x="260" y="20" as="targetPoint" />
          </mxGeometry>
        </mxCell>
        <mxCell id="tqhBYrK17Wl8zSmaN2CT-30" value="先配置，再推荐，或配置 + 推荐" style="ellipse;shape=cloud;whiteSpace=wrap;html=1;fillColor=#f8cecc;strokeColor=#b85450;sketch=1;curveFitting=1;jiggle=2;" vertex="1" parent="1">
          <mxGeometry x="420" y="-30" width="120" height="80" as="geometry" />
        </mxCell>
        <mxCell id="tqhBYrK17Wl8zSmaN2CT-32" value="HBase" style="shape=datastore;whiteSpace=wrap;html=1;fillColor=#f8cecc;strokeColor=#b85450;" vertex="1" parent="1">
          <mxGeometry x="450" y="737" width="60" height="60" as="geometry" />
        </mxCell>
        <mxCell id="tqhBYrK17Wl8zSmaN2CT-33" value="Redis" style="shape=datastore;whiteSpace=wrap;html=1;fillColor=#f8cecc;strokeColor=#b85450;" vertex="1" parent="1">
          <mxGeometry x="540" y="737" width="60" height="60" as="geometry" />
        </mxCell>
        <mxCell id="tqhBYrK17Wl8zSmaN2CT-34" value="" style="shape=curlyBracket;whiteSpace=wrap;html=1;rounded=1;labelPosition=left;verticalLabelPosition=middle;align=right;verticalAlign=middle;fillColor=none;strokeColor=#9673a6;sketch=1;curveFitting=1;jiggle=2;size=0.5;" vertex="1" parent="1">
          <mxGeometry x="604" y="70" width="20" height="55" as="geometry" />
        </mxCell>
        <mxCell id="tqhBYrK17Wl8zSmaN2CT-35" value="首页列表可见" style="rounded=0;whiteSpace=wrap;html=1;fillColor=none;sketch=1;curveFitting=1;jiggle=2;strokeColor=none;" vertex="1" parent="1">
          <mxGeometry x="630" y="42" width="80" height="40" as="geometry" />
        </mxCell>
        <mxCell id="tqhBYrK17Wl8zSmaN2CT-36" value="可搜" style="rounded=0;whiteSpace=wrap;html=1;fillColor=none;sketch=1;curveFitting=1;jiggle=2;strokeColor=none;" vertex="1" parent="1">
          <mxGeometry x="630" y="59" width="80" height="40" as="geometry" />
        </mxCell>
        <mxCell id="tqhBYrK17Wl8zSmaN2CT-37" value="可访问详情页" style="rounded=0;whiteSpace=wrap;html=1;fillColor=none;sketch=1;curveFitting=1;jiggle=2;strokeColor=none;" vertex="1" parent="1">
          <mxGeometry x="631" y="77" width="80" height="40" as="geometry" />
        </mxCell>
        <mxCell id="tqhBYrK17Wl8zSmaN2CT-38" value="否则，无法拉取数据" style="rounded=0;whiteSpace=wrap;html=1;fillColor=none;sketch=1;curveFitting=1;jiggle=2;strokeColor=none;" vertex="1" parent="1">
          <mxGeometry x="630" y="102" width="110" height="40" as="geometry" />
        </mxCell>
        <mxCell id="tqhBYrK17Wl8zSmaN2CT-39" value="" style="shape=curlyBracket;whiteSpace=wrap;html=1;rounded=1;labelPosition=left;verticalLabelPosition=middle;align=right;verticalAlign=middle;fillColor=none;strokeColor=#9673a6;sketch=1;curveFitting=1;jiggle=2;size=0.5;" vertex="1" parent="1">
          <mxGeometry x="604" y="167.5" width="20" height="55" as="geometry" />
        </mxCell>
        <mxCell id="tqhBYrK17Wl8zSmaN2CT-41" value="展示价格" style="rounded=0;whiteSpace=wrap;html=1;fillColor=none;sketch=1;curveFitting=1;jiggle=2;strokeColor=none;" vertex="1" parent="1">
          <mxGeometry x="631" y="150" width="80" height="40" as="geometry" />
        </mxCell>
        <mxCell id="tqhBYrK17Wl8zSmaN2CT-42" value="操作购买按钮" style="rounded=0;whiteSpace=wrap;html=1;fillColor=none;sketch=1;curveFitting=1;jiggle=2;strokeColor=none;" vertex="1" parent="1">
          <mxGeometry x="630" y="175" width="80" height="40" as="geometry" />
        </mxCell>
        <mxCell id="tqhBYrK17Wl8zSmaN2CT-43" value="展示激活状态" style="rounded=0;whiteSpace=wrap;html=1;fillColor=none;sketch=1;curveFitting=1;jiggle=2;strokeColor=none;" vertex="1" parent="1">
          <mxGeometry x="630" y="200" width="80" height="40" as="geometry" />
        </mxCell>
        <mxCell id="tqhBYrK17Wl8zSmaN2CT-44" value="" style="shape=curlyBracket;whiteSpace=wrap;html=1;rounded=1;labelPosition=left;verticalLabelPosition=middle;align=right;verticalAlign=middle;fillColor=none;strokeColor=#9673a6;sketch=1;curveFitting=1;jiggle=2;size=0.5;" vertex="1" parent="1">
          <mxGeometry x="610" y="257.5" width="20" height="55" as="geometry" />
        </mxCell>
        <mxCell id="tqhBYrK17Wl8zSmaN2CT-47" value="展示可下载" style="rounded=0;whiteSpace=wrap;html=1;fillColor=none;sketch=1;curveFitting=1;jiggle=2;strokeColor=none;" vertex="1" parent="1">
          <mxGeometry x="631" y="265" width="80" height="40" as="geometry" />
        </mxCell>
        <mxCell id="tqhBYrK17Wl8zSmaN2CT-48" value="" style="shape=curlyBracket;whiteSpace=wrap;html=1;rounded=1;labelPosition=left;verticalLabelPosition=middle;align=right;verticalAlign=middle;fillColor=none;strokeColor=#9673a6;sketch=1;curveFitting=1;jiggle=2;size=0.5;" vertex="1" parent="1">
          <mxGeometry x="610" y="347.5" width="20" height="55" as="geometry" />
        </mxCell>
        <mxCell id="tqhBYrK17Wl8zSmaN2CT-49" value="展示可启动" style="rounded=0;whiteSpace=wrap;html=1;fillColor=none;sketch=1;curveFitting=1;jiggle=2;strokeColor=none;" vertex="1" parent="1">
          <mxGeometry x="630" y="355" width="80" height="40" as="geometry" />
        </mxCell>
        <mxCell id="tqhBYrK17Wl8zSmaN2CT-50" value="" style="shape=curlyBracket;whiteSpace=wrap;html=1;rounded=1;labelPosition=left;verticalLabelPosition=middle;align=right;verticalAlign=middle;fillColor=none;strokeColor=#9673a6;sketch=1;curveFitting=1;jiggle=2;size=0.5;" vertex="1" parent="1">
          <mxGeometry x="719" y="140" width="20" height="55" as="geometry" />
        </mxCell>
        <mxCell id="tqhBYrK17Wl8zSmaN2CT-52" value="原价" style="rounded=0;whiteSpace=wrap;html=1;fillColor=none;sketch=1;curveFitting=1;jiggle=2;strokeColor=none;" vertex="1" parent="1">
          <mxGeometry x="720" y="120" width="80" height="40" as="geometry" />
        </mxCell>
        <mxCell id="tqhBYrK17Wl8zSmaN2CT-53" value="折扣价" style="rounded=0;whiteSpace=wrap;html=1;fillColor=none;sketch=1;curveFitting=1;jiggle=2;strokeColor=none;" vertex="1" parent="1">
          <mxGeometry x="720" y="175" width="80" height="40" as="geometry" />
        </mxCell>
        <mxCell id="tqhBYrK17Wl8zSmaN2CT-54" value="不同分区的开售状态独立" style="ellipse;shape=cloud;whiteSpace=wrap;html=1;fillColor=#f8cecc;strokeColor=#b85450;sketch=1;curveFitting=1;jiggle=2;" vertex="1" parent="1">
          <mxGeometry x="390" y="190" width="120" height="80" as="geometry" />
        </mxCell>
      </root>
    </mxGraphModel>
  </diagram>
</mxfile>
